<svg width="21" height="20" viewBox="0 0 21 20" fill="none" xmlns="http://www.w3.org/2000/svg">
<g clip-path="url(#clip0_2161_14245)">
<path d="M20.5127 10C20.5127 4.47715 16.0355 0 10.5127 0C4.98984 0 0.512695 4.47715 0.512695 10C0.512695 14.9913 4.16955 19.1283 8.9502 19.8785V12.8906H6.41114V10H8.9502V7.79688C8.9502 5.29062 10.4431 3.90626 12.7273 3.90626C13.8214 3.90626 14.9658 4.10156 14.9658 4.10156V6.5625H13.7048C12.4626 6.5625 12.0752 7.33335 12.0752 8.12417V10H14.8486L14.4053 12.8906H12.0752V19.8785C16.8558 19.1283 20.5127 14.9913 20.5127 10Z" fill="#1877F2"/>
<path d="M14.4053 12.8906L14.8486 10H12.0752V8.12415C12.0752 7.33334 12.4626 6.5625 13.7048 6.5625H14.9658V4.10156C14.9658 4.10156 13.8214 3.90625 12.7273 3.90625C10.4431 3.90625 8.95019 5.29062 8.95019 7.79688V10H6.41113V12.8906H8.95019V19.8785C9.46708 19.9595 9.9895 20.0001 10.5127 20C11.0443 20 11.5661 19.9584 12.0752 19.8785V12.8906H14.4053Z" fill="white"/>
</g>
<defs>
<clipPath id="clip0_2161_14245">
<rect width="20" height="20" fill="white" transform="translate(0.512695)"/>
</clipPath>
</defs>
</svg>
